<?xml version="1.0" encoding="UTF-8" ?>
<!DOCTYPE svg PUBLIC "-//W3C//DTD SVG 1.1//EN" "http://www.w3.org/Graphics/SVG/1.1/DTD/svg11.dtd">
<svg width="512pt" height="512pt" viewBox="0 0 512 512" version="1.1" xmlns="http://www.w3.org/2000/svg">
<g id="#ff0000ff">
<path fill="#ff0000" opacity="1.00" d=" M 84.52 82.45 C 90.98 81.66 97.50 81.75 104.00 81.75 C 130.33 81.80 156.66 81.70 182.99 81.77 C 190.36 81.74 197.74 82.45 204.94 84.08 C 235.56 90.68 262.14 113.50 273.12 142.86 C 274.33 146.03 275.12 149.37 276.69 152.40 C 279.44 152.76 282.20 152.41 284.94 152.26 C 289.95 151.87 294.98 151.97 300.00 152.00 C 330.34 152.01 360.67 151.99 391.01 152.00 C 401.85 152.34 412.79 152.90 423.34 155.63 C 454.56 163.12 482.17 184.38 497.44 212.62 C 503.85 224.15 508.06 236.84 510.23 249.84 C 510.91 254.75 511.36 259.69 512.00 264.61 L 512.00 272.38 C 511.35 277.28 510.83 282.19 510.16 287.08 C 506.35 310.46 495.12 332.60 478.41 349.41 C 459.52 368.82 433.59 381.34 406.56 383.56 C 404.57 383.79 402.54 383.93 400.65 384.62 C 398.12 387.58 396.70 391.28 394.48 394.46 C 387.09 405.36 376.73 414.12 365.08 420.18 C 350.62 427.65 334.12 430.51 317.95 430.22 C 315.63 430.09 313.13 430.14 311.11 428.85 C 308.17 426.98 306.96 422.75 308.68 419.69 C 310.22 417.28 312.52 415.52 314.57 413.56 C 320.97 407.74 326.17 400.61 329.75 392.73 C 330.93 390.07 332.16 387.29 332.03 384.31 C 316.03 384.00 300.02 384.43 284.02 384.14 C 274.28 383.99 264.59 382.39 255.21 379.82 C 231.65 373.25 210.41 358.86 195.39 339.60 C 182.74 323.64 174.58 304.21 171.83 284.04 C 171.33 280.41 171.25 276.73 170.65 273.11 C 163.49 272.22 156.20 272.54 149.02 272.97 C 150.28 279.10 153.98 284.35 157.83 289.15 C 160.47 292.49 163.93 295.05 166.69 298.27 C 169.19 301.12 168.65 306.40 165.23 308.31 C 162.14 310.10 158.43 310.09 154.97 310.02 C 144.26 309.55 133.48 307.78 123.62 303.42 C 111.12 297.90 100.16 288.58 93.38 276.65 C 92.51 275.26 91.67 273.80 90.45 272.69 C 86.93 271.82 83.27 271.89 79.71 271.26 C 58.05 267.63 37.82 256.17 23.52 239.50 C 12.20 226.47 4.54 210.31 1.69 193.29 C 1.06 189.01 0.53 184.72 0.00 180.42 L 0.00 174.60 C 0.53 170.57 0.98 166.53 1.54 162.51 C 3.21 151.05 7.23 140.00 12.85 129.91 C 14.10 127.79 15.59 125.36 18.20 124.84 C 21.42 123.94 25.34 125.24 26.65 128.50 C 28.36 132.23 26.08 136.09 24.40 139.38 C 15.96 154.42 13.41 172.32 15.73 189.30 C 18.67 209.34 29.62 227.96 45.48 240.52 C 58.62 251.03 75.17 257.23 91.99 257.86 C 94.57 258.10 97.36 257.98 99.68 259.32 C 101.62 260.83 102.56 263.21 103.69 265.33 C 110.79 280.67 126.25 291.29 142.74 294.02 C 140.31 289.17 137.18 284.64 135.55 279.43 C 133.98 274.49 132.54 269.33 132.96 264.11 C 133.27 260.59 136.73 258.27 140.06 258.15 C 150.27 257.47 160.55 258.57 170.75 257.73 C 171.68 254.70 171.93 251.52 172.44 248.41 C 177.60 217.85 195.70 189.74 221.39 172.41 C 230.52 166.29 240.42 161.27 250.90 157.93 C 254.45 156.78 258.13 156.08 261.62 154.73 C 261.29 152.77 260.68 150.87 260.00 149.01 C 254.34 134.13 244.38 120.84 231.38 111.60 C 217.46 101.44 200.23 96.17 183.04 96.23 C 154.34 96.27 125.65 96.25 96.96 96.23 C 79.32 96.21 61.48 101.61 47.45 112.44 C 45.88 113.58 44.30 114.74 42.52 115.51 C 39.55 116.85 35.71 115.77 33.92 113.04 C 32.22 110.47 32.23 106.70 34.40 104.39 C 37.30 101.19 41.07 98.96 44.65 96.61 C 56.62 88.91 70.40 84.13 84.52 82.45 M 213.79 198.81 C 197.39 215.88 186.89 238.71 185.46 262.41 C 183.68 290.18 194.19 318.50 213.61 338.42 C 228.88 354.49 249.62 365.23 271.55 368.44 C 277.32 369.21 283.15 369.71 288.98 369.74 C 305.32 369.73 321.67 369.70 338.01 369.69 C 339.91 369.74 341.85 369.72 343.71 370.23 C 346.09 371.13 348.04 373.40 348.21 376.01 C 348.53 379.97 347.79 383.94 346.80 387.76 C 344.87 394.88 342.07 401.81 337.98 407.98 C 336.56 410.17 335.02 412.33 333.94 414.73 C 346.65 413.00 359.12 408.30 369.18 400.23 C 377.26 393.82 384.03 385.61 388.14 376.12 C 389.29 373.78 390.53 370.94 393.31 370.23 C 396.81 369.46 400.43 369.57 403.99 369.21 C 421.71 367.97 438.93 361.58 453.53 351.52 C 480.17 333.17 497.29 301.45 497.02 268.99 C 497.70 239.99 484.51 211.29 462.78 192.22 C 444.33 175.85 419.70 166.45 394.99 166.93 C 363.99 166.85 333.00 166.92 302.00 166.89 C 294.31 166.93 286.62 166.78 278.94 167.16 C 254.28 169.12 230.76 180.92 213.79 198.81 Z" />
<path fill="#ff0000" opacity="1.00" d=" M 285.16 256.53 C 291.43 256.14 297.28 261.71 297.18 267.99 C 297.39 273.25 293.61 278.36 288.45 279.52 C 281.71 281.53 274.01 276.05 273.88 268.98 C 273.20 262.62 278.79 256.53 285.16 256.53 Z" />
<path fill="#ff0000" opacity="1.00" d=" M 341.15 256.53 C 348.68 256.08 354.72 264.34 352.44 271.41 C 351.15 276.42 346.19 280.02 341.06 279.93 C 337.27 279.75 333.48 277.87 331.40 274.65 C 329.20 271.41 329.00 267.08 330.47 263.51 C 332.28 259.37 336.60 256.45 341.15 256.53 Z" />
<path fill="#ff0000" opacity="1.00" d=" M 392.40 257.38 C 396.42 256.01 401.41 256.36 404.59 259.43 C 408.79 262.90 409.74 269.38 407.06 274.05 C 404.24 279.07 397.36 281.38 392.13 278.89 C 387.15 276.75 384.23 270.86 385.52 265.61 C 386.30 261.95 388.99 258.84 392.40 257.38 Z" />
</g>
</svg>
