<?xml version="1.0" encoding="UTF-8" ?>
<!DOCTYPE svg PUBLIC "-//W3C//DTD SVG 1.1//EN" "http://www.w3.org/Graphics/SVG/1.1/DTD/svg11.dtd">
<svg width="256pt" height="256pt" viewBox="0 0 256 256" version="1.1" xmlns="http://www.w3.org/2000/svg">
<g id="#2e2e2eff">
<path fill="#2e2e2e" opacity="1.00" d=" M 7.81 31.82 C 14.83 25.90 24.51 27.17 32.98 26.87 C 86.32 27.10 139.66 26.99 193.00 26.98 C 208.13 27.09 223.30 26.27 238.39 27.65 C 247.16 28.91 252.57 36.75 256.00 44.20 L 256.00 58.55 C 251.80 70.53 244.11 81.31 233.67 88.62 C 212.60 103.63 191.02 117.91 170.01 133.01 C 158.36 140.86 147.38 150.28 133.99 155.03 C 122.67 158.03 112.01 150.95 103.05 144.94 C 77.83 127.11 52.31 109.70 27.02 91.99 C 15.26 83.98 5.00 73.02 0.00 59.53 L 0.00 45.40 C 1.56 40.36 4.34 35.77 7.81 31.82 Z" />
<path fill="#2e2e2e" opacity="1.00" d=" M 0.00 91.76 C 13.52 104.71 29.77 114.24 45.02 124.93 C 63.36 136.76 80.36 150.49 98.62 162.42 C 107.23 167.66 116.68 172.90 127.09 172.65 C 142.73 173.21 155.93 163.67 168.12 155.14 C 184.35 143.25 200.88 131.78 217.60 120.56 C 230.73 111.43 244.70 103.22 256.00 91.73 L 256.00 212.81 C 252.99 217.65 249.90 222.84 244.96 225.93 C 238.77 230.02 230.98 228.54 224.03 229.11 C 157.34 228.85 90.64 229.10 23.96 229.02 C 13.12 230.30 4.48 221.77 0.00 212.79 L 0.00 91.76 Z" />
</g>
</svg>
