<?xml version="1.0" encoding="UTF-8" ?>
<!DOCTYPE svg PUBLIC "-//W3C//DTD SVG 1.1//EN" "http://www.w3.org/Graphics/SVG/1.1/DTD/svg11.dtd">
<svg width="256pt" height="256pt" viewBox="0 0 256 256" version="1.1" xmlns="http://www.w3.org/2000/svg">
<g id="#fe181aff">
<path fill="#fe181a" opacity="1.00" d=" M 42.66 0.00 L 213.34 0.00 C 213.34 25.59 213.34 51.18 213.34 76.78 C 217.51 76.85 222.22 76.49 225.67 79.28 C 228.73 81.49 230.27 85.25 230.35 88.95 C 230.54 97.70 230.28 106.46 230.46 115.21 C 236.18 115.34 241.95 114.79 247.63 115.51 C 253.03 116.86 255.76 122.54 256.00 127.72 L 256.00 128.58 C 241.48 168.46 226.94 208.34 212.37 248.21 C 211.04 252.72 206.73 255.75 202.11 256.00 L 10.50 256.00 C 4.73 255.81 0.14 250.75 0.00 245.07 L 0.00 58.67 C 0.34 54.98 1.87 51.16 5.12 49.11 C 8.55 46.60 13.04 47.01 17.06 46.89 C 17.07 36.95 17.05 27.01 17.06 17.06 C 21.33 17.06 25.60 17.06 29.87 17.06 C 29.88 14.21 29.88 11.37 29.88 8.53 C 34.14 8.53 38.40 8.53 42.65 8.53 C 42.66 5.69 42.66 2.84 42.66 0.00 M 51.19 8.53 C 51.18 44.22 51.20 79.91 51.18 115.60 C 55.42 114.97 59.72 115.21 63.99 115.19 C 110.93 115.18 157.87 115.19 204.81 115.18 C 204.82 79.63 204.81 44.08 204.81 8.54 C 153.60 8.53 102.40 8.53 51.19 8.53 M 38.40 17.07 C 38.43 57.34 38.37 97.62 38.43 137.90 C 39.97 132.64 43.25 127.69 42.68 122.02 C 42.63 87.03 42.67 52.05 42.66 17.07 C 41.24 17.06 39.82 17.06 38.40 17.07 M 25.61 172.90 C 27.22 167.65 30.48 162.66 29.90 156.98 C 29.85 113.18 29.89 69.39 29.87 25.60 C 28.45 25.60 27.02 25.59 25.60 25.59 C 25.60 74.70 25.58 123.80 25.61 172.90 M 9.31 56.31 C 8.32 58.75 8.50 61.40 8.52 63.97 C 8.57 115.78 8.48 167.58 8.57 219.39 C 11.10 212.10 13.85 204.90 16.48 197.65 C 17.23 195.83 17.05 193.84 17.08 191.92 C 16.98 146.43 17.17 100.93 16.98 55.43 C 14.40 55.43 11.74 55.25 9.31 56.31 M 213.34 85.34 C 213.35 95.29 213.33 105.24 213.36 115.19 C 216.19 115.18 219.03 115.18 221.87 115.18 C 221.88 108.45 221.87 101.71 221.88 94.98 C 221.82 92.00 222.29 88.88 220.98 86.08 C 218.53 85.15 215.91 85.29 213.34 85.34 M 53.20 124.09 C 52.08 124.69 51.91 126.09 51.40 127.12 C 37.40 165.59 23.39 204.05 9.31 242.49 C 8.84 243.86 7.94 245.53 9.23 246.78 C 10.56 247.82 12.40 247.32 13.96 247.49 C 76.32 247.43 138.67 247.50 201.03 247.46 C 202.56 247.61 204.09 246.73 204.41 245.17 C 218.63 206.37 232.71 167.53 246.90 128.72 C 248.03 126.67 246.90 123.04 244.07 123.73 C 182.39 123.69 120.70 123.75 59.01 123.71 C 57.08 123.80 55.05 123.44 53.20 124.09 Z" />
<path fill="#fe181a" opacity="1.00" d=" M 75.36 34.43 C 89.86 33.73 104.47 34.28 119.02 34.15 C 122.02 33.84 124.64 37.07 123.40 39.92 C 122.67 42.16 120.16 42.83 118.06 42.66 C 104.12 42.58 90.18 42.80 76.25 42.55 C 71.99 42.31 71.29 35.62 75.36 34.43 Z" />
<path fill="#fe181a" opacity="1.00" d=" M 76.17 64.12 C 109.45 63.82 142.75 64.11 176.04 63.98 C 178.19 64.06 180.83 63.63 182.41 65.50 C 184.45 67.69 183.23 71.67 180.31 72.32 C 177.90 72.71 175.44 72.49 173.01 72.53 C 141.32 72.52 109.64 72.53 77.95 72.53 C 75.99 72.65 73.67 71.98 72.95 69.94 C 71.71 67.58 73.53 64.36 76.17 64.12 Z" />
<path fill="#fe181a" opacity="1.00" d=" M 75.13 94.22 C 76.71 93.75 78.39 93.90 80.02 93.86 C 113.02 93.93 146.02 93.80 179.01 93.92 C 182.06 93.63 184.53 97.30 182.97 99.97 C 182.18 101.92 179.91 102.53 177.99 102.41 C 144.33 102.38 110.67 102.47 77.01 102.36 C 72.45 102.81 70.90 95.82 75.13 94.22 Z" />
</g>
</svg>
