<?xml version="1.0" encoding="UTF-8" ?>
<!DOCTYPE svg PUBLIC "-//W3C//DTD SVG 1.1//EN" "http://www.w3.org/Graphics/SVG/1.1/DTD/svg11.dtd">
<svg width="256pt" height="256pt" viewBox="0 0 256 256" version="1.1" xmlns="http://www.w3.org/2000/svg">
<g id="#fe181aff">
<path fill="#fe181a" opacity="1.00" d=" M 2.95 74.87 C 44.63 51.18 86.31 27.51 128.01 3.85 C 152.06 17.50 176.10 31.16 200.15 44.81 C 218.79 55.27 237.22 66.13 256.00 76.33 L 256.00 76.69 C 240.89 84.95 226.08 93.77 211.07 102.21 C 224.77 110.18 238.66 117.81 252.36 125.78 C 253.50 126.45 254.70 127.03 256.00 127.34 L 256.00 127.71 C 241.06 136.38 226.03 144.89 211.03 153.46 C 224.73 161.30 238.49 169.01 252.16 176.89 C 253.16 177.48 254.22 177.96 255.33 178.34 L 256.00 178.32 L 256.00 179.39 C 254.89 179.81 253.81 180.30 252.78 180.87 C 211.19 204.63 169.60 228.38 128.02 252.15 C 90.63 230.83 53.28 209.46 15.91 188.12 C 10.83 185.39 6.02 182.12 0.78 179.73 L 0.00 179.59 L 0.00 178.67 C 1.12 178.28 2.20 177.80 3.23 177.21 C 17.13 169.29 31.03 161.37 44.96 153.50 C 30.01 144.84 14.94 136.40 0.00 127.72 L 0.00 127.37 C 2.91 126.35 5.50 124.67 8.16 123.16 C 20.41 116.17 32.70 109.25 44.95 102.24 C 29.94 93.78 15.14 84.94 0.00 76.73 L 0.00 76.27 C 1.01 75.85 1.99 75.38 2.95 74.87 M 18.90 76.45 C 55.12 97.52 91.65 118.06 127.98 138.94 C 164.36 118.11 200.83 97.44 237.13 76.48 C 200.71 55.92 164.39 35.19 128.00 14.56 C 91.62 35.17 55.32 55.91 18.90 76.45 M 196.54 111.33 C 192.20 112.29 188.72 115.25 184.79 117.17 C 186.41 119.40 187.19 122.81 184.59 124.67 C 181.70 127.06 178.08 124.68 176.91 121.71 C 161.48 130.58 145.95 139.27 130.60 148.26 C 130.75 151.59 127.43 154.74 124.14 153.22 C 121.19 152.18 120.90 148.72 121.99 146.20 C 106.09 137.09 90.11 128.10 74.27 118.87 C 76.08 123.05 71.14 127.63 67.32 124.77 C 63.84 122.45 65.48 117.32 69.15 116.23 C 66.11 114.25 62.98 112.41 59.76 110.73 C 56.94 111.82 53.64 111.94 51.71 109.17 C 40.76 115.25 29.97 121.61 18.98 127.63 C 20.86 129.01 22.88 130.20 24.97 131.24 C 28.58 128.88 32.98 131.70 32.89 135.83 C 48.26 144.65 63.68 153.39 79.05 162.22 C 80.26 159.61 83.10 157.13 86.07 158.85 C 89.28 160.36 88.89 164.39 86.96 166.79 C 91.40 169.12 95.53 172.23 100.58 173.16 C 101.49 174.29 102.30 175.58 103.64 176.27 C 111.76 180.91 119.88 185.56 128.01 190.18 C 135.04 186.13 142.12 182.18 149.11 178.07 C 149.33 176.32 149.43 174.17 151.16 173.17 C 152.97 171.69 155.37 172.45 157.22 173.42 C 160.57 171.60 163.92 169.75 167.13 167.67 C 165.58 166.83 163.64 165.96 163.33 164.00 C 162.36 160.56 166.18 157.19 169.48 158.61 C 172.12 159.54 172.70 162.58 172.15 165.02 C 187.99 155.76 204.04 146.87 219.88 137.60 C 218.87 135.41 218.83 132.46 221.18 131.12 C 223.55 129.38 226.44 130.99 228.04 132.97 C 231.04 131.28 234.12 129.72 236.97 127.79 C 226.29 121.46 215.37 115.52 204.64 109.27 C 203.47 108.75 202.39 107.70 201.04 107.80 C 199.58 109.04 198.65 111.12 196.54 111.33 M 18.85 179.03 C 55.21 199.86 91.61 220.64 128.00 241.43 C 164.38 220.64 200.78 199.86 237.15 179.04 C 225.38 172.26 213.50 165.67 201.75 158.86 C 177.09 172.73 152.60 186.92 128.00 200.90 C 103.41 186.91 78.91 172.75 54.27 158.86 C 42.50 165.66 30.63 172.26 18.85 179.03 Z" />
<path fill="#fe181a" opacity="1.00" d=" M 39.28 117.31 C 42.06 114.98 46.80 117.35 46.62 120.96 C 46.82 124.23 43.01 126.66 40.10 125.22 C 36.98 123.96 36.46 119.18 39.28 117.31 Z" />
<path fill="#fe181a" opacity="1.00" d=" M 207.25 117.13 C 210.10 115.07 214.56 117.54 214.33 121.05 C 214.48 124.54 210.11 126.89 207.25 124.92 C 204.47 123.27 204.42 118.76 207.25 117.13 Z" />
<path fill="#fe181a" opacity="1.00" d=" M 53.31 131.25 C 56.13 128.93 60.82 131.42 60.60 135.03 C 60.76 138.58 56.17 140.98 53.36 138.76 C 50.78 137.11 50.77 132.95 53.31 131.25 Z" />
<path fill="#fe181a" opacity="1.00" d=" M 81.31 131.21 C 84.12 128.99 88.73 131.40 88.56 134.96 C 88.81 138.55 84.10 141.01 81.29 138.75 C 78.69 137.09 78.73 132.86 81.31 131.21 Z" />
<path fill="#fe181a" opacity="1.00" d=" M 165.27 131.14 C 168.11 129.02 172.54 131.45 172.41 134.95 C 172.58 138.09 168.94 140.61 166.08 139.25 C 162.68 138.12 162.20 132.92 165.27 131.14 Z" />
<path fill="#fe181a" opacity="1.00" d=" M 193.26 131.10 C 196.12 129.04 200.57 131.49 200.35 135.01 C 200.56 138.48 196.12 140.91 193.29 138.88 C 190.47 137.27 190.49 132.75 193.26 131.10 Z" />
<path fill="#fe181a" opacity="1.00" d=" M 67.32 145.19 C 70.13 142.98 74.82 145.36 74.57 148.97 C 74.81 152.56 70.12 154.95 67.33 152.72 C 64.73 151.06 64.75 146.86 67.32 145.19 Z" />
<path fill="#fe181a" opacity="1.00" d=" M 95.31 145.16 C 98.19 142.97 102.80 145.44 102.54 149.06 C 102.63 152.57 98.14 154.91 95.33 152.76 C 92.67 151.15 92.68 146.79 95.31 145.16 Z" />
<path fill="#fe181a" opacity="1.00" d=" M 151.28 145.11 C 154.16 143.01 158.63 145.43 158.45 148.98 C 158.60 152.49 154.13 154.92 151.29 152.79 C 148.54 151.18 148.57 146.74 151.28 145.11 Z" />
<path fill="#fe181a" opacity="1.00" d=" M 179.27 145.09 C 181.82 143.30 185.68 144.91 186.28 147.94 C 187.21 151.35 183.35 154.72 180.11 153.26 C 176.68 152.10 176.18 146.92 179.27 145.09 Z" />
<path fill="#fe181a" opacity="1.00" d=" M 110.50 158.55 C 114.10 157.19 117.93 161.49 116.07 164.90 C 114.76 167.97 110.09 168.47 108.21 165.69 C 106.31 163.32 107.56 159.37 110.50 158.55 Z" />
<path fill="#fe181a" opacity="1.00" d=" M 137.26 159.15 C 140.09 156.95 144.75 159.43 144.44 163.02 C 144.61 166.50 140.10 168.86 137.31 166.77 C 134.61 165.16 134.58 160.79 137.26 159.15 Z" />
<path fill="#fe181a" opacity="1.00" d=" M 124.46 172.52 C 127.69 171.31 131.33 174.65 130.35 177.98 C 129.71 181.66 124.32 182.80 122.23 179.72 C 120.26 177.36 121.51 173.37 124.46 172.52 Z" />
</g>
</svg>
