<?xml version="1.0" encoding="UTF-8" ?>
<!DOCTYPE svg PUBLIC "-//W3C//DTD SVG 1.1//EN" "http://www.w3.org/Graphics/SVG/1.1/DTD/svg11.dtd">
<svg width="578pt" height="262pt" viewBox="0 0 578 262" version="1.1" xmlns="http://www.w3.org/2000/svg">
<g id="#f6f7f5ff">
<path fill="#f6f7f5" opacity="1.00" d=" M 5.25 0.00 L 24.71 0.00 C 26.05 0.76 27.58 1.40 28.53 2.67 C 29.27 4.17 28.69 5.89 28.65 7.46 C 22.23 9.10 15.60 8.37 9.06 8.26 C 8.22 14.20 9.24 20.26 8.24 26.17 C 7.88 29.03 3.97 30.05 2.03 28.11 C 1.01 26.79 0.54 25.17 0.00 23.62 L 0.00 6.39 C 0.47 3.39 2.27 0.88 5.25 0.00 Z" />
<path fill="#f6f7f5" opacity="1.00" d=" M 553.15 0.00 L 571.54 0.00 C 573.35 0.62 575.36 1.04 576.82 2.36 C 577.43 4.02 577.71 5.78 578.00 7.51 L 578.00 22.52 C 577.45 24.68 577.07 27.04 575.55 28.78 C 573.88 29.19 572.17 28.73 570.51 28.58 C 568.68 21.95 569.86 15.04 569.01 8.29 C 563.38 8.14 557.72 8.80 552.13 8.06 C 550.48 7.98 548.74 6.76 549.04 4.94 C 548.73 2.35 551.48 1.31 553.15 0.00 Z" />
<path fill="#f6f7f5" opacity="1.00" d=" M 345.92 11.99 C 348.07 11.17 350.29 10.53 352.60 10.33 C 353.20 14.11 353.72 18.03 352.74 21.80 C 352.02 24.42 351.04 26.95 350.31 29.57 C 356.10 33.30 362.33 37.02 365.90 43.14 C 370.23 49.80 370.49 58.75 366.80 65.74 C 365.52 68.17 361.90 68.24 360.96 70.90 C 358.28 77.80 355.12 84.70 350.04 90.20 C 347.54 87.99 344.83 85.81 343.27 82.79 C 343.74 77.80 345.22 72.91 344.98 67.84 C 343.40 67.97 341.82 68.08 340.24 68.18 C 339.66 70.78 339.07 73.38 338.52 75.98 C 337.31 75.43 336.14 74.76 335.29 73.72 C 332.19 70.30 329.09 66.85 326.50 63.01 C 330.87 59.60 336.51 57.40 339.36 52.36 C 342.78 46.10 341.10 37.06 334.94 33.11 C 328.43 29.50 319.63 31.15 314.75 36.74 C 311.29 40.47 310.45 45.95 311.30 50.81 C 311.99 54.37 314.55 57.11 316.69 59.89 C 312.53 63.30 307.93 66.40 304.89 70.94 C 300.52 77.11 300.54 86.00 304.73 92.25 C 306.50 94.93 309.27 96.87 312.36 97.69 C 318.02 99.27 324.36 99.36 329.71 96.71 C 333.73 94.78 336.67 91.34 340.00 88.49 C 342.05 90.44 343.83 92.66 345.37 95.03 C 340.72 100.48 334.36 104.37 327.60 106.61 C 322.99 108.24 318.04 107.50 313.31 108.30 C 311.00 109.48 309.31 111.61 306.94 112.69 C 305.26 112.49 303.84 111.50 302.36 110.78 C 302.33 108.24 302.42 105.67 302.05 103.15 C 301.21 100.80 299.46 98.95 298.10 96.91 C 293.71 90.92 292.21 83.32 292.17 76.02 C 292.01 67.04 294.30 58.14 298.13 50.05 C 299.47 47.14 301.39 44.52 302.66 41.57 C 303.27 39.18 302.13 36.57 303.17 34.25 C 306.89 26.44 315.29 20.99 324.01 21.20 C 330.98 20.81 337.28 24.13 343.84 25.88 C 346.24 21.64 346.53 16.73 345.92 11.99 Z" />
<path fill="#f6f7f5" opacity="1.00" d=" M 263.64 36.51 C 265.27 36.35 266.92 36.17 268.56 36.37 C 271.12 38.13 270.68 41.51 270.47 44.19 C 268.97 58.43 269.21 72.79 267.85 87.05 C 266.73 99.15 266.90 111.36 265.37 123.42 C 265.36 127.12 260.23 128.39 258.05 125.72 C 257.57 123.52 257.73 121.26 257.84 119.04 C 259.28 98.01 260.60 76.97 261.62 55.91 C 261.84 52.34 261.94 48.77 261.83 45.19 C 246.86 46.63 231.74 47.21 216.93 49.99 C 215.58 75.16 213.93 100.31 212.45 125.46 C 212.22 127.52 212.00 129.93 210.18 131.25 C 208.57 132.52 206.48 131.62 204.83 130.95 C 204.66 128.32 204.48 125.68 204.64 123.05 C 206.15 98.35 207.58 73.64 208.98 48.94 C 209.22 46.65 209.32 43.78 211.50 42.40 C 214.18 41.33 217.12 41.23 219.95 40.85 C 234.49 39.15 249.12 38.33 263.64 36.51 Z" />
<path fill="#f6f7f5" opacity="1.00" d=" M 326.29 36.47 C 329.48 36.12 332.88 37.73 334.56 40.48 C 335.67 42.77 335.61 45.47 335.15 47.92 C 334.26 51.92 330.70 54.64 327.11 56.14 C 325.14 56.94 322.65 57.67 320.78 56.24 C 318.43 54.45 316.90 51.63 316.47 48.73 C 315.89 42.91 320.51 37.20 326.29 36.47 Z" />
<path fill="#f6f7f5" opacity="1.00" d=" M 187.42 44.23 C 189.39 43.32 192.12 43.90 193.34 45.77 C 194.00 49.11 193.34 52.54 193.23 55.91 C 191.92 79.97 190.35 104.01 188.96 128.06 C 188.76 130.07 188.62 132.58 186.57 133.64 C 185.14 134.14 183.59 134.01 182.11 134.16 C 180.22 129.74 181.23 124.85 181.38 120.22 C 182.64 104.82 183.08 89.37 184.36 73.97 C 184.66 70.59 184.65 67.19 184.09 63.84 C 180.14 66.74 177.98 71.28 175.18 75.18 C 161.41 95.07 147.58 114.92 133.91 134.89 C 132.29 137.03 130.41 139.89 127.35 139.70 C 126.04 138.91 124.94 137.61 125.07 135.99 C 124.71 126.63 126.32 117.34 126.63 108.00 C 127.15 91.67 128.48 75.39 129.32 59.08 C 129.55 56.26 129.58 53.31 130.73 50.67 C 132.26 48.78 135.65 48.88 137.21 50.74 C 138.08 53.71 137.32 56.88 137.29 59.92 C 136.34 79.63 134.33 99.30 134.24 119.05 C 136.11 117.32 137.90 115.49 139.33 113.37 C 153.99 91.71 169.02 70.29 183.66 48.61 C 184.77 47.04 185.89 45.43 187.42 44.23 Z" />
<path fill="#f6f7f5" opacity="1.00" d=" M 108.73 51.67 C 110.39 50.76 112.22 51.74 113.89 52.09 C 114.64 57.47 113.66 62.86 113.44 68.24 C 112.38 90.10 110.89 111.94 109.63 133.79 C 109.40 135.95 109.34 138.25 108.24 140.19 C 106.92 142.40 102.67 142.64 101.96 139.79 C 101.36 136.90 101.74 133.92 101.90 130.99 C 102.43 124.74 102.96 118.47 102.70 112.19 C 93.51 113.27 84.43 115.51 75.15 115.63 C 68.97 115.38 61.97 114.23 57.83 109.16 C 54.47 105.28 54.48 99.85 54.62 95.02 C 55.06 84.46 55.64 73.91 56.42 63.37 C 56.64 61.46 56.66 59.43 57.58 57.70 C 58.70 56.04 60.91 55.79 62.72 56.12 C 64.93 57.72 64.54 60.66 64.40 63.02 C 63.39 72.93 63.29 82.89 62.52 92.81 C 62.33 96.84 62.19 101.65 65.44 104.60 C 69.80 107.93 75.64 107.86 80.87 107.65 C 88.49 107.07 96.13 105.88 103.42 103.50 C 105.04 87.78 104.94 71.93 106.45 56.20 C 106.65 54.50 107.14 52.59 108.73 51.67 Z" />
<path fill="#f6f7f5" opacity="1.00" d=" M 319.32 65.44 C 319.67 65.42 320.36 65.37 320.71 65.34 C 323.74 67.26 325.49 70.56 327.80 73.21 C 330.46 76.71 334.00 79.75 335.44 84.01 C 334.59 87.22 331.89 89.56 329.12 91.15 C 324.08 94.05 317.50 94.61 312.38 91.60 C 308.50 89.34 307.17 84.42 307.38 80.20 C 308.11 73.57 313.11 67.68 319.32 65.44 Z" />
<path fill="#f6f7f5" opacity="1.00" d=" M 421.45 107.46 C 425.08 105.96 426.96 102.16 430.19 100.10 C 431.79 99.85 433.43 100.02 435.05 100.06 C 434.84 102.46 434.59 105.03 432.93 106.93 C 427.70 113.48 418.57 116.08 410.49 114.48 C 406.89 113.74 403.44 111.61 401.66 108.33 C 400.17 105.74 402.80 101.85 405.71 102.42 C 408.45 103.87 410.41 106.48 413.23 107.84 C 415.89 108.66 418.84 108.40 421.45 107.46 Z" />
<path fill="#f6f7f5" opacity="1.00" d=" M 495.36 117.13 C 498.36 115.51 500.93 118.57 501.80 121.16 C 511.30 145.93 521.00 170.63 530.68 195.34 C 531.32 197.51 532.46 200.03 531.32 202.23 C 530.27 204.24 527.45 204.48 525.68 203.40 C 523.74 201.01 523.05 197.91 521.91 195.11 C 514.50 175.53 506.99 155.98 499.65 136.37 C 498.77 134.80 498.45 132.10 496.21 132.07 C 493.89 135.40 492.57 139.28 490.91 142.94 C 482.54 161.61 474.45 180.39 466.14 199.07 C 464.43 202.70 463.41 206.80 460.61 209.79 C 458.70 210.59 455.31 210.80 454.64 208.34 C 453.89 206.43 455.08 204.50 455.69 202.74 C 467.89 175.86 479.90 148.90 491.95 121.96 C 492.85 120.22 493.65 118.23 495.36 117.13 Z" />
<path fill="#f6f7f5" opacity="1.00" d=" M 441.37 122.34 C 443.22 121.83 445.18 122.03 447.09 121.96 C 447.81 128.98 447.11 136.02 446.85 143.04 C 446.05 162.71 444.84 182.35 444.13 202.02 C 443.81 205.11 444.08 208.56 442.32 211.28 C 440.78 212.40 438.70 212.12 436.92 212.48 C 436.19 209.71 435.84 206.86 436.03 204.01 C 436.65 191.88 437.11 179.74 437.52 167.60 C 438.10 158.39 439.00 149.18 438.68 139.94 C 434.99 143.31 432.53 147.69 429.76 151.77 C 416.06 172.07 402.16 192.22 388.60 212.60 C 387.36 214.32 386.10 216.15 384.26 217.28 C 382.78 218.20 380.55 217.83 379.82 216.14 C 378.98 213.88 379.29 211.40 379.31 209.04 C 380.56 186.96 381.35 164.85 382.56 142.77 C 382.91 138.17 382.16 133.29 384.01 128.94 C 385.46 126.57 388.65 127.45 390.88 127.90 C 390.86 150.67 388.39 173.36 388.34 196.13 C 392.39 194.32 394.04 189.92 396.52 186.56 C 409.04 168.39 421.51 150.18 434.07 132.04 C 436.42 128.75 438.33 125.06 441.37 122.34 Z" />
<path fill="#f6f7f5" opacity="1.00" d=" M 336.07 131.79 C 345.80 131.14 355.49 129.05 365.28 129.97 C 365.18 131.78 365.67 133.85 364.48 135.42 C 363.60 136.78 361.93 137.15 360.46 137.41 C 348.18 139.03 335.69 138.98 323.52 141.37 C 322.81 151.88 322.25 162.40 322.18 172.93 C 334.15 172.58 345.94 169.51 357.96 170.23 C 359.43 173.01 358.29 177.27 354.78 177.62 C 343.73 179.18 332.51 179.55 321.51 181.51 C 320.95 192.92 320.01 204.34 320.31 215.77 C 325.87 215.27 331.39 214.35 336.97 214.05 C 345.72 213.62 354.36 211.70 363.15 212.03 C 362.90 214.28 364.00 217.28 361.92 218.91 C 359.93 220.10 357.50 220.08 355.28 220.40 C 341.13 221.63 327.04 223.38 312.87 224.22 C 310.86 218.67 312.23 212.72 312.37 207.00 C 313.08 187.98 314.29 168.99 315.08 149.98 C 315.34 144.65 314.95 139.10 317.17 134.09 C 323.40 132.86 329.73 132.21 336.07 131.79 Z" />
<path fill="#f6f7f5" opacity="1.00" d=" M 256.20 140.21 C 257.21 138.84 259.12 138.90 260.61 139.27 C 261.96 140.39 262.71 142.03 263.42 143.60 C 271.17 163.14 279.03 182.63 286.85 202.14 C 289.00 207.27 290.78 212.56 293.30 217.53 C 295.43 217.68 297.59 217.74 299.68 218.22 C 302.52 219.70 301.33 224.59 298.55 225.48 C 295.56 226.20 292.46 226.20 289.42 226.51 C 263.34 228.89 237.30 231.78 211.19 233.85 C 210.11 232.16 208.44 230.00 209.98 228.03 C 212.13 225.53 216.14 225.77 218.43 223.42 C 220.62 220.31 221.62 216.57 223.19 213.15 C 232.52 192.43 241.55 171.57 250.86 150.85 C 252.54 147.26 253.74 143.37 256.20 140.21 M 255.57 159.61 C 247.72 177.95 239.46 196.11 231.30 214.31 C 230.00 217.15 228.98 220.10 228.07 223.09 C 230.44 223.83 232.93 223.81 235.38 223.51 C 246.11 222.32 256.90 221.88 267.62 220.58 C 273.07 219.86 278.82 220.44 283.95 218.13 C 281.18 209.49 277.28 201.26 274.26 192.71 C 268.99 179.82 264.55 166.59 258.74 153.93 C 257.55 155.75 256.43 157.62 255.57 159.61 Z" />
<path fill="#f6f7f5" opacity="1.00" d=" M 2.00 233.85 C 4.06 232.83 7.73 233.07 8.18 235.80 C 9.29 241.70 8.22 247.77 8.99 253.72 C 14.59 253.88 20.24 253.14 25.80 254.01 C 28.34 254.13 29.63 257.25 28.61 259.37 C 27.80 260.38 26.77 261.19 25.77 262.00 L 0.00 262.00 L 0.00 239.50 C 0.49 237.56 0.97 235.58 2.00 233.85 Z" />
<path fill="#f6f7f5" opacity="1.00" d=" M 569.83 235.81 C 570.29 233.13 573.96 232.78 575.98 233.89 C 577.14 235.54 577.51 237.57 578.00 239.48 L 578.00 262.00 L 552.22 262.00 C 551.00 260.86 549.03 259.90 549.13 257.97 C 549.01 256.13 550.12 254.00 552.18 254.00 C 557.89 253.17 563.68 253.89 569.43 253.60 C 569.65 247.68 568.62 241.66 569.83 235.81 Z" />
</g>
</svg>
