<?xml version="1.0" encoding="UTF-8" ?>
<!DOCTYPE svg PUBLIC "-//W3C//DTD SVG 1.1//EN" "http://www.w3.org/Graphics/SVG/1.1/DTD/svg11.dtd">
<svg width="256pt" height="256pt" viewBox="0 0 256 256" version="1.1" xmlns="http://www.w3.org/2000/svg">
<g id="#fe181aff">
<path fill="#fe181a" opacity="1.00" d=" M 113.69 31.75 C 129.40 28.43 146.88 30.25 160.19 39.79 C 172.93 48.65 180.55 63.38 182.81 78.50 C 184.75 91.61 185.38 104.88 186.61 118.07 C 188.99 112.85 192.50 108.23 196.96 104.61 C 196.20 100.01 196.34 94.99 199.12 91.04 C 205.81 80.57 222.28 79.28 230.85 88.12 C 235.40 92.34 236.63 98.86 235.43 104.76 C 246.54 113.30 251.24 129.47 245.35 142.36 C 243.16 146.74 242.68 151.78 240.12 155.99 C 238.11 159.56 235.06 162.38 231.94 164.99 C 231.94 167.57 231.94 170.15 231.96 172.73 C 237.52 175.63 243.33 178.08 248.70 181.33 C 253.19 184.05 255.74 189.15 256.00 194.32 L 256.00 223.11 C 254.91 226.58 249.34 226.89 248.71 223.04 C 248.12 213.54 248.77 203.99 248.44 194.48 C 248.41 191.66 246.99 188.90 244.50 187.51 C 240.27 185.03 235.75 183.10 231.40 180.86 C 227.26 185.06 222.38 189.60 216.03 189.26 C 209.77 189.48 205.04 184.97 200.96 180.86 C 199.07 181.78 197.18 182.71 195.29 183.63 C 198.02 187.55 200.00 192.11 199.85 196.97 C 199.81 205.60 200.11 214.24 199.71 222.85 C 199.40 226.94 192.65 226.76 192.53 222.66 C 192.04 213.81 192.67 204.92 192.27 196.06 C 192.21 191.33 189.05 187.11 184.79 185.24 C 177.79 182.03 170.70 179.00 163.64 175.92 C 159.20 184.36 151.95 191.39 143.02 194.90 C 131.24 199.77 117.15 198.49 106.48 191.51 C 100.42 187.74 95.76 182.11 92.38 175.89 C 85.31 178.97 78.22 182.01 71.21 185.24 C 66.95 187.10 63.80 191.33 63.73 196.05 C 63.33 204.90 63.96 213.79 63.48 222.65 C 63.37 226.75 56.60 226.95 56.29 222.85 C 55.94 213.90 56.10 204.91 56.22 195.95 C 56.26 189.79 59.70 184.28 64.32 180.42 C 61.90 179.70 59.51 178.93 57.11 178.13 C 53.93 181.33 50.72 184.50 47.57 187.73 C 47.62 198.50 47.58 209.27 47.62 220.04 C 47.59 221.99 47.62 224.55 45.51 225.51 C 43.11 226.85 39.91 224.77 40.17 222.03 C 39.82 210.73 40.44 199.40 39.91 188.11 C 37.61 184.28 33.63 181.61 30.66 178.24 C 24.67 180.24 18.44 181.50 12.52 183.69 C 9.18 184.96 7.40 188.57 7.53 192.01 C 7.37 201.95 7.66 211.90 7.44 221.85 C 7.58 223.84 6.11 225.83 4.02 225.89 C 2.10 226.23 0.94 224.48 0.00 223.12 L 0.00 190.72 C 0.51 186.01 2.57 181.31 6.56 178.55 C 12.96 174.28 21.07 174.22 27.87 170.91 C 28.15 168.17 28.89 164.68 26.16 162.92 C 19.16 157.12 15.85 147.95 16.06 139.01 C 16.58 134.48 13.65 130.77 12.61 126.57 C 10.68 117.99 14.31 108.57 21.28 103.27 C 25.67 99.73 31.35 98.18 36.93 98.20 C 48.34 98.15 59.75 98.20 71.16 98.19 C 72.12 83.53 73.48 68.17 81.36 55.37 C 88.41 43.57 100.30 34.87 113.69 31.75 M 95.63 49.71 C 86.42 58.33 81.43 70.66 80.08 83.05 C 78.47 96.29 77.93 109.65 76.32 122.89 C 75.35 134.14 73.38 145.27 72.05 156.47 C 79.37 160.55 87.01 164.18 95.21 166.11 C 98.21 165.25 101.56 164.17 103.61 161.68 C 104.90 156.86 103.92 151.74 104.23 146.80 C 90.31 137.78 82.15 120.61 84.57 104.14 C 85.81 97.77 92.89 96.06 96.50 91.46 C 98.65 89.10 99.57 85.97 101.30 83.35 C 103.35 80.88 107.96 82.73 107.65 85.95 C 106.00 92.53 101.48 98.16 95.89 101.88 C 94.12 103.18 91.66 104.43 91.71 106.99 C 91.31 115.80 93.71 124.86 99.18 131.88 C 105.25 139.97 114.90 145.32 125.00 146.03 C 134.53 146.91 144.34 143.73 151.56 137.46 C 159.57 130.71 164.20 120.37 164.30 109.92 C 164.29 105.45 165.23 99.90 161.34 96.66 C 148.26 85.86 131.63 80.06 114.92 78.11 C 112.73 77.66 109.69 77.91 108.60 75.48 C 107.18 72.72 110.07 69.41 113.01 70.29 C 132.49 72.37 152.30 78.61 167.16 91.83 C 172.75 96.96 171.99 105.11 171.73 111.99 C 171.25 125.96 163.40 139.15 151.78 146.80 C 152.07 151.72 151.13 156.81 152.36 161.63 C 154.23 164.11 157.48 164.97 160.25 166.06 C 168.69 164.52 176.49 160.59 183.96 156.46 C 182.65 145.47 180.71 134.55 179.75 123.51 C 178.16 110.34 177.53 97.08 176.04 83.91 C 174.81 72.11 170.53 60.34 162.28 51.62 C 145.29 33.62 113.70 32.97 95.63 49.71 M 203.72 100.67 C 211.73 97.58 220.64 97.62 228.66 100.64 C 228.35 93.39 220.72 88.55 213.91 89.99 C 208.48 90.57 204.02 95.17 203.72 100.67 M 27.85 107.83 C 22.23 110.93 18.79 117.60 19.71 123.98 C 20.17 127.41 22.47 130.20 23.37 133.48 C 23.82 137.67 23.15 141.96 24.21 146.09 C 26.08 154.44 33.44 161.53 42.12 162.18 C 50.25 163.02 58.50 158.28 62.01 150.93 C 64.43 146.34 64.12 141.02 64.12 136.00 C 63.81 131.66 67.25 128.32 67.78 124.14 C 68.50 118.02 67.96 111.84 68.12 105.69 C 58.07 105.68 48.02 105.70 37.97 105.67 C 34.50 105.65 30.89 106.01 27.85 107.83 M 208.91 106.88 C 195.54 110.66 187.91 127.19 194.16 139.72 C 196.59 144.52 196.57 150.39 200.27 154.57 C 205.74 161.75 216.26 164.31 224.45 160.52 C 230.65 157.89 234.99 151.92 236.20 145.37 C 229.78 137.71 220.25 133.66 210.97 130.62 C 209.49 133.10 208.13 135.93 205.56 137.46 C 202.86 138.70 199.57 135.83 200.61 132.98 C 202.13 130.52 203.97 128.21 204.63 125.32 C 204.98 123.36 206.90 121.81 208.93 122.41 C 217.32 124.29 225.34 127.79 232.65 132.29 C 235.08 133.58 236.78 136.25 239.45 136.95 C 241.94 128.52 239.51 118.87 233.17 112.75 C 226.98 106.52 217.27 104.16 208.91 106.88 M 111.72 150.66 C 111.47 155.72 112.67 161.32 109.84 165.87 C 107.55 169.71 103.04 171.07 99.22 172.84 C 104.97 183.96 117.40 191.23 129.95 190.26 C 141.20 189.77 151.59 182.74 156.78 172.84 C 152.96 171.07 148.45 169.71 146.16 165.88 C 143.33 161.32 144.53 155.72 144.28 150.66 C 133.85 154.59 122.15 154.59 111.72 150.66 M 191.55 154.72 C 191.40 157.27 191.14 160.15 188.97 161.87 C 183.61 166.00 177.11 168.19 170.98 170.91 C 176.02 173.16 181.07 175.37 186.10 177.62 C 187.10 177.87 188.19 178.87 189.24 178.25 C 193.01 176.53 196.62 174.51 200.37 172.75 C 200.40 170.14 200.41 167.54 200.41 164.94 C 196.83 162.12 193.70 158.76 191.55 154.72 M 65.17 159.93 C 63.41 161.72 61.52 163.38 59.57 164.96 C 59.59 167.00 59.64 169.03 59.72 171.07 C 64.48 172.74 69.33 174.16 74.22 175.37 C 77.99 174.40 81.41 172.38 84.99 170.88 C 78.16 167.76 70.42 165.60 65.17 159.93 M 35.65 168.59 C 35.56 169.51 35.39 171.36 35.30 172.28 C 38.13 175.14 40.99 177.97 43.84 180.81 C 46.67 177.99 49.51 175.16 52.32 172.32 C 52.25 171.40 52.10 169.56 52.02 168.64 C 46.67 170.09 40.99 170.12 35.65 168.59 M 208.02 168.64 C 207.94 171.29 207.63 173.92 207.14 176.52 C 209.74 178.76 212.35 181.79 216.10 181.74 C 219.97 181.85 222.71 178.74 225.30 176.30 C 224.66 173.80 224.38 171.22 224.33 168.64 C 219.00 170.10 213.35 170.09 208.02 168.64 Z" />
<path fill="#fe181a" opacity="1.00" d=" M 29.35 119.19 C 29.79 118.99 30.68 118.59 31.12 118.39 C 37.83 118.25 44.57 119.03 51.13 120.43 C 53.67 121.13 56.38 121.77 58.51 123.41 C 60.85 125.53 59.04 129.68 55.96 129.69 C 52.57 129.05 49.41 127.49 45.96 127.02 C 41.06 126.03 36.02 126.28 31.09 125.58 C 28.13 125.24 27.05 121.01 29.35 119.19 Z" />
<path fill="#fe181a" opacity="1.00" d=" M 17.37 195.32 C 19.57 193.17 23.67 195.11 23.47 198.16 C 23.60 206.06 23.55 213.97 23.49 221.87 C 23.85 224.83 20.18 227.07 17.75 225.30 C 15.86 224.22 16.06 221.83 16.01 219.97 C 16.04 213.31 16.02 206.65 16.02 199.99 C 16.09 198.38 15.92 196.41 17.37 195.32 Z" />
<path fill="#fe181a" opacity="1.00" d=" M 234.15 199.98 C 236.37 198.37 239.94 200.07 239.88 202.87 C 240.01 209.56 240.13 216.28 239.81 222.96 C 239.38 226.64 233.43 226.87 232.69 223.25 C 232.15 217.55 232.63 211.79 232.45 206.06 C 232.55 203.99 232.07 201.28 234.15 199.98 Z" />
<path fill="#fe181a" opacity="1.00" d=" M 85.38 203.44 C 87.26 201.44 91.14 202.60 91.48 205.35 C 91.90 209.88 91.54 214.44 91.68 218.99 C 91.54 221.06 92.11 223.73 90.16 225.16 C 88.09 226.87 84.51 225.46 84.29 222.75 C 83.95 218.15 84.24 213.52 84.13 208.92 C 84.25 207.08 83.85 204.81 85.38 203.44 Z" />
<path fill="#fe181a" opacity="1.00" d=" M 165.49 203.49 C 167.57 201.19 171.84 202.91 171.76 206.00 C 171.90 211.60 171.99 217.21 171.71 222.80 C 171.39 226.52 165.50 226.97 164.58 223.38 C 164.02 218.60 164.49 213.75 164.32 208.95 C 164.46 207.14 164.00 204.87 165.49 203.49 Z" />
</g>
</svg>
