<?xml version="1.0" encoding="UTF-8" ?>
<!DOCTYPE svg PUBLIC "-//W3C//DTD SVG 1.1//EN" "http://www.w3.org/Graphics/SVG/1.1/DTD/svg11.dtd">
<svg width="256pt" height="256pt" viewBox="0 0 256 256" version="1.1" xmlns="http://www.w3.org/2000/svg">
<g id="#2e2e2eff">
<path fill="#2e2e2e" opacity="1.00" d=" M 33.51 1.37 C 40.74 -1.12 49.18 0.98 54.44 6.53 C 67.45 19.52 80.49 32.49 93.43 45.55 C 100.82 52.74 101.04 65.51 94.22 73.15 C 87.41 80.53 80.05 87.39 73.04 94.57 C 84.33 115.71 97.92 135.98 116.01 151.92 C 129.48 164.71 145.50 174.41 161.75 183.24 C 168.72 176.39 175.47 169.29 182.55 162.56 C 190.07 155.46 203.04 155.20 210.46 162.60 C 223.53 175.50 236.46 188.56 249.46 201.53 C 253.49 205.37 255.91 210.73 256.00 216.30 L 256.00 217.37 C 255.68 224.27 251.55 230.17 246.50 234.57 C 233.14 249.06 212.87 257.64 193.09 255.25 C 168.77 252.99 145.67 243.55 124.78 231.22 C 96.04 214.34 71.73 191.09 49.47 166.52 C 31.14 145.27 13.28 122.44 4.85 95.25 C 2.00 86.23 0.54 76.84 0.00 67.42 L 0.00 59.12 C 0.66 43.03 6.10 26.96 16.75 14.73 C 21.99 9.92 26.39 3.54 33.51 1.37 Z" />
</g>
</svg>
