<?xml version="1.0" encoding="UTF-8" ?>
<!DOCTYPE svg PUBLIC "-//W3C//DTD SVG 1.1//EN" "http://www.w3.org/Graphics/SVG/1.1/DTD/svg11.dtd">
<svg width="256pt" height="256pt" viewBox="0 0 256 256" version="1.1" xmlns="http://www.w3.org/2000/svg">
<g id="#fe181aff">
<path fill="#fe181a" opacity="1.00" d=" M 124.53 0.00 L 127.13 0.00 C 156.56 0.44 185.74 11.60 207.57 31.40 C 233.64 54.45 249.22 89.09 248.50 123.94 C 248.00 126.98 243.86 128.42 241.53 126.43 C 239.29 124.72 239.80 121.59 239.54 119.12 C 238.84 88.69 224.87 58.98 202.28 38.65 C 183.18 21.15 157.91 10.47 132.02 9.23 C 109.98 7.93 87.60 13.29 68.56 24.46 C 49.51 35.53 33.80 52.25 23.93 71.95 C 14.74 90.09 10.69 110.75 12.18 131.02 C 14.03 160.19 27.91 188.17 49.58 207.72 C 62.24 200.16 75.47 193.56 88.29 186.27 C 91.46 184.56 93.48 181.14 93.51 177.55 C 93.55 173.24 93.81 168.89 93.37 164.60 C 88.16 156.74 83.35 148.44 80.85 139.27 C 80.11 135.47 76.49 133.34 75.12 129.85 C 73.26 125.47 73.83 120.59 73.74 115.96 C 73.88 111.45 73.25 106.78 74.65 102.41 C 75.42 99.86 77.82 97.87 77.72 95.07 C 77.79 87.40 77.64 79.73 77.71 72.06 C 77.91 62.43 82.16 52.87 89.55 46.61 C 97.65 39.66 108.45 36.66 118.95 36.21 C 131.38 35.39 144.58 36.16 155.72 42.27 C 165.27 47.39 172.18 57.19 173.47 67.98 C 174.46 77.57 173.27 87.27 174.03 96.86 C 175.71 100.00 177.77 103.15 177.71 106.86 C 177.81 112.69 177.94 118.54 177.63 124.37 C 177.31 131.38 171.92 137.80 165.03 139.15 C 161.25 139.54 158.85 134.26 161.72 131.72 C 164.34 129.86 168.16 128.60 168.61 124.92 C 169.10 119.31 168.81 113.65 168.80 108.02 C 168.93 104.99 166.83 102.67 164.92 100.60 C 164.82 91.40 164.94 82.20 164.92 73.00 C 164.74 65.05 161.32 56.93 154.73 52.22 C 147.52 47.21 138.63 45.32 129.99 44.93 C 118.94 44.41 107.20 45.56 97.66 51.64 C 90.27 56.41 86.45 65.36 86.57 73.97 C 86.73 82.84 86.64 91.70 86.65 100.57 C 85.02 102.48 82.86 104.34 82.83 107.06 C 82.59 112.68 82.55 118.33 82.85 123.95 C 82.89 127.06 85.46 128.99 87.61 130.80 C 89.88 140.35 93.92 149.48 99.55 157.53 C 100.86 159.50 102.95 161.30 102.52 163.91 C 102.17 170.91 103.53 178.28 100.86 184.95 C 99.05 189.44 95.26 192.78 91.07 195.02 C 79.66 201.25 68.25 207.46 56.84 213.69 C 70.21 223.65 85.61 231.00 101.98 234.32 C 103.99 234.77 106.07 235.06 107.95 235.93 C 110.61 237.37 110.77 241.54 108.28 243.24 C 106.13 244.87 103.38 243.66 101.01 243.29 C 73.32 237.59 47.66 222.10 30.09 199.90 C 8.65 173.70 -0.87 138.26 4.30 104.82 C 8.35 76.34 23.09 49.63 44.71 30.72 C 66.51 11.32 95.40 0.40 124.53 0.00 Z" />
<path fill="#fe181a" opacity="1.00" d=" M 217.06 143.08 C 220.28 139.57 225.38 138.00 230.01 139.09 C 235.25 139.93 238.39 144.64 242.02 148.00 C 245.33 151.65 249.60 154.60 251.87 159.08 C 253.94 164.04 253.14 170.30 249.18 174.12 C 227.74 195.67 206.18 217.10 184.72 238.64 C 182.83 240.38 181.26 242.80 178.61 243.40 C 168.53 246.12 158.47 248.91 148.38 251.60 C 145.45 252.13 143.62 254.67 141.09 256.00 L 139.71 256.00 C 137.76 255.49 135.91 254.09 135.80 251.92 C 135.55 248.59 139.50 247.11 139.96 243.98 C 142.65 233.98 145.41 224.00 148.07 214.00 C 148.44 212.55 148.92 211.07 150.07 210.05 C 172.40 187.73 194.72 165.39 217.06 143.08 M 223.96 148.90 C 219.64 153.01 215.52 157.32 211.28 161.51 C 217.62 167.82 223.92 174.15 230.25 180.47 C 234.42 176.23 238.71 172.10 242.82 167.80 C 244.69 166.11 244.56 163.00 242.71 161.35 C 238.55 157.13 234.39 152.90 230.10 148.82 C 228.46 147.08 225.57 147.17 223.96 148.90 M 159.16 213.58 C 165.46 219.92 171.80 226.24 178.13 232.56 C 193.40 217.30 208.67 202.04 223.94 186.78 C 217.61 180.46 211.30 174.13 204.97 167.82 C 189.69 183.06 174.44 198.34 159.16 213.58 M 155.13 222.23 C 153.33 228.81 151.54 235.40 149.76 241.99 C 156.35 240.20 162.93 238.40 169.52 236.60 C 164.74 231.79 159.93 227.01 155.13 222.23 Z" />
</g>
</svg>
